<svg width="72" height="72" viewBox="0 0 72 72" fill="none" xmlns="http://www.w3.org/2000/svg">
<rect width="72" height="72" rx="12" fill="#F0FDFF"/>
<path d="M33 41V31M33 41C33 41.5304 32.7893 42.0391 32.4142 42.4142C32.0391 42.7893 31.5304 43 31 43H29C28.4696 43 27.9609 42.7893 27.5858 42.4142C27.2107 42.0391 27 41.5304 27 41V31C27 30.4696 27.2107 29.9609 27.5858 29.5858C27.9609 29.2107 28.4696 29 29 29H31C31.5304 29 32.0391 29.2107 32.4142 29.5858C32.7893 29.9609 33 30.4696 33 31M33 41C33 41.5304 33.2107 42.0391 33.5858 42.4142C33.9609 42.7893 34.4696 43 35 43H37C37.5304 43 38.0391 42.7893 38.4142 42.4142C38.7893 42.0391 39 41.5304 39 41M33 31C33 30.4696 33.2107 29.9609 33.5858 29.5858C33.9609 29.2107 34.4696 29 35 29H37C37.5304 29 38.0391 29.2107 38.4142 29.5858C38.7893 29.9609 39 30.4696 39 31M39 41V31M39 41C39 41.5304 39.2107 42.0391 39.5858 42.4142C39.9609 42.7893 40.4696 43 41 43H43C43.5304 43 44.0391 42.7893 44.4142 42.4142C44.7893 42.0391 45 41.5304 45 41V31C45 30.4696 44.7893 29.9609 44.4142 29.5858C44.0391 29.2107 43.5304 29 43 29H41C40.4696 29 39.9609 29.2107 39.5858 29.5858C39.2107 29.9609 39 30.4696 39 31" stroke="#02A3B9" stroke-width="2" stroke-linecap="round" stroke-linejoin="round"/>
</svg>
