<svg width="72" height="72" viewBox="0 0 72 72" fill="none" xmlns="http://www.w3.org/2000/svg">
<rect width="72" height="72" rx="12" fill="#EBEDFF"/>
<path d="M28 40L32.586 35.414C32.9611 35.0391 33.4697 34.8284 34 34.8284C34.5303 34.8284 35.0389 35.0391 35.414 35.414L40 40M38 38L39.586 36.414C39.9611 36.0391 40.4697 35.8284 41 35.8284C41.5303 35.8284 42.0389 36.0391 42.414 36.414L44 38M38 32H38.01M30 44H42C42.5304 44 43.0391 43.7893 43.4142 43.4142C43.7893 43.0391 44 42.5304 44 42V30C44 29.4696 43.7893 28.9609 43.4142 28.5858C43.0391 28.2107 42.5304 28 42 28H30C29.4696 28 28.9609 28.2107 28.5858 28.5858C28.2107 28.9609 28 29.4696 28 30V42C28 42.5304 28.2107 43.0391 28.5858 43.4142C28.9609 43.7893 29.4696 44 30 44Z" stroke="#0018F1" stroke-width="2" stroke-linecap="round" stroke-linejoin="round"/>
</svg>
