<svg width="101" height="21" viewBox="0 0 101 21" fill="none" xmlns="http://www.w3.org/2000/svg">
<path d="M10.1526 15.4628C10.4704 15.271 10.8683 15.271 11.1861 15.4628L13.7903 17.0347C14.5476 17.4918 15.4819 16.8128 15.2809 15.9513L14.5898 12.9888C14.5055 12.6273 14.6283 12.2488 14.9089 12.0058L17.2147 10.0082C17.8828 9.42942 17.5265 8.33201 16.6459 8.25607L13.6105 7.99433C13.2416 7.96252 12.9205 7.72954 12.7759 7.38875L11.5898 4.59456C11.245 3.78219 10.0937 3.7822 9.74883 4.59456L8.56277 7.38875C8.41812 7.72954 8.09702 7.96252 7.72818 7.99433L4.68983 8.25632C3.8096 8.33223 3.45304 9.42877 4.12028 10.0079L6.42298 12.0063C6.70271 12.2491 6.82534 12.6266 6.74168 12.9875L6.05362 15.955C5.85397 16.816 6.78775 17.4937 7.54452 17.037L10.1526 15.4628Z" fill="#FFA800"/>
<path d="M30.1526 15.4628C30.4704 15.271 30.8683 15.271 31.1861 15.4628L33.7903 17.0347C34.5476 17.4918 35.4819 16.8128 35.2809 15.9513L34.5898 12.9888C34.5055 12.6273 34.6283 12.2488 34.9089 12.0058L37.2147 10.0082C37.8828 9.42942 37.5265 8.33201 36.6459 8.25607L33.6105 7.99433C33.2416 7.96252 32.9205 7.72954 32.7759 7.38875L31.5898 4.59456C31.245 3.78219 30.0937 3.7822 29.7488 4.59456L28.5628 7.38875C28.4181 7.72954 28.097 7.96252 27.7282 7.99433L24.6898 8.25632C23.8096 8.33223 23.453 9.42877 24.1203 10.0079L26.423 12.0063C26.7027 12.2491 26.8253 12.6266 26.7417 12.9875L26.0536 15.955C25.854 16.816 26.7878 17.4937 27.5445 17.037L30.1526 15.4628Z" fill="#FFA800"/>
<path d="M50.1526 15.4628C50.4704 15.271 50.8683 15.271 51.1861 15.4628L53.7903 17.0347C54.5476 17.4918 55.4819 16.8128 55.2809 15.9513L54.5898 12.9888C54.5055 12.6273 54.6283 12.2488 54.9089 12.0058L57.2147 10.0082C57.8828 9.42942 57.5265 8.33201 56.6459 8.25607L53.6105 7.99433C53.2416 7.96252 52.9205 7.72954 52.7759 7.38875L51.5898 4.59456C51.245 3.78219 50.0937 3.7822 49.7488 4.59456L48.5628 7.38875C48.4181 7.72954 48.097 7.96252 47.7282 7.99433L44.6898 8.25632C43.8096 8.33223 43.453 9.42877 44.1203 10.0079L46.423 12.0063C46.7027 12.2491 46.8253 12.6266 46.7417 12.9875L46.0536 15.955C45.854 16.816 46.7878 17.4937 47.5445 17.037L50.1526 15.4628Z" fill="#FFA800"/>
<path d="M70.1526 15.4628C70.4704 15.271 70.8683 15.271 71.1861 15.4628L73.7903 17.0347C74.5476 17.4918 75.4819 16.8128 75.2809 15.9513L74.5898 12.9888C74.5055 12.6273 74.6283 12.2488 74.9089 12.0058L77.2147 10.0082C77.8828 9.42942 77.5265 8.33201 76.6459 8.25607L73.6105 7.99433C73.2416 7.96252 72.9205 7.72954 72.7759 7.38875L71.5898 4.59456C71.245 3.78219 70.0937 3.7822 69.7488 4.59456L68.5628 7.38875C68.4181 7.72954 68.097 7.96252 67.7282 7.99433L64.6898 8.25632C63.8096 8.33223 63.453 9.42877 64.1203 10.0079L66.423 12.0063C66.7027 12.2491 66.8253 12.6266 66.7417 12.9875L66.0536 15.955C65.854 16.816 66.7878 17.4937 67.5445 17.037L70.1526 15.4628Z" fill="#FFA800"/>
<path d="M90.1526 15.4628C90.4704 15.271 90.8683 15.271 91.1861 15.4628L93.7903 17.0347C94.5476 17.4918 95.4819 16.8128 95.2809 15.9513L94.5898 12.9888C94.5055 12.6273 94.6283 12.2488 94.9089 12.0058L97.2147 10.0082C97.8828 9.42942 97.5265 8.33201 96.6459 8.25607L93.6105 7.99433C93.2416 7.96252 92.9205 7.72954 92.7759 7.38875L91.5898 4.59456C91.245 3.78219 90.0937 3.7822 89.7488 4.59456L88.5628 7.38875C88.4181 7.72954 88.097 7.96252 87.7282 7.99433L84.6898 8.25632C83.8096 8.33223 83.453 9.42877 84.1203 10.0079L86.423 12.0063C86.7027 12.2491 86.8253 12.6266 86.7417 12.9875L86.0536 15.955C85.854 16.816 86.7878 17.4937 87.5445 17.037L90.1526 15.4628Z" fill="black" fill-opacity="0.3"/>
</svg>
