<svg width="72" height="72" viewBox="0 0 72 72" fill="none" xmlns="http://www.w3.org/2000/svg">
<rect width="72" height="72" rx="12" fill="#F5E8FF"/>
<path d="M31 45H41C41.5304 45 42.0391 44.7893 42.4142 44.4142C42.7893 44.0391 43 43.5304 43 43V33.414C42.9999 33.1488 42.8946 32.8945 42.707 32.707L37.293 27.293C37.1055 27.1055 36.8512 27.0001 36.586 27H31C30.4696 27 29.9609 27.2107 29.5858 27.5858C29.2107 27.9609 29 28.4696 29 29V43C29 43.5304 29.2107 44.0391 29.5858 44.4142C29.9609 44.7893 30.4696 45 31 45Z" stroke="#8302E8" stroke-width="2" stroke-linecap="round" stroke-linejoin="round"/>
</svg>
