<svg width="19" height="19" viewBox="0 0 19 19" fill="none" xmlns="http://www.w3.org/2000/svg">
<path d="M11.5448 8.44733L10.8698 9.13733C10.3298 9.67733 9.99231 10.1348 9.99231 11.2598H8.49231V10.8848C8.49231 10.0523 8.82981 9.30233 9.36981 8.76233L10.2998 7.81733C10.5773 7.54733 10.7423 7.17233 10.7423 6.75983C10.7423 5.92733 10.0673 5.25983 9.24231 5.25983C8.84448 5.25983 8.46295 5.41786 8.18165 5.69917C7.90035 5.98047 7.74231 6.362 7.74231 6.75983H6.24231C6.24231 5.96418 6.55838 5.20112 7.12099 4.63851C7.6836 4.0759 8.44666 3.75983 9.24231 3.75983C10.038 3.75983 10.801 4.0759 11.3636 4.63851C11.9262 5.20112 12.2423 5.96418 12.2423 6.75983C12.2423 7.41983 11.9723 8.01233 11.5448 8.44733ZM9.99231 14.2598H8.49231V12.7598H9.99231M9.24231 1.50983C8.2574 1.50983 7.28213 1.70382 6.37218 2.08073C5.46224 2.45764 4.63545 3.01009 3.93901 3.70653C2.53249 5.11305 1.74231 7.0207 1.74231 9.00983C1.74231 10.999 2.53249 12.9066 3.93901 14.3131C4.63545 15.0096 5.46224 15.562 6.37218 15.9389C7.28213 16.3158 8.2574 16.5098 9.24231 16.5098C11.2314 16.5098 13.1391 15.7197 14.5456 14.3131C15.9521 12.9066 16.7423 10.999 16.7423 9.00983C16.7423 4.86233 13.3673 1.50983 9.24231 1.50983Z" fill="black" fill-opacity="0.3"/>
</svg>
