<svg width="18" height="18" viewBox="0 0 18 18" fill="none" xmlns="http://www.w3.org/2000/svg">
<path d="M6.00526 1.78875C4.93379 2.08404 3.86961 2.40514 2.81363 2.75175C2.71721 2.78298 2.63149 2.84067 2.56625 2.91824C2.50102 2.99581 2.45887 3.09015 2.44463 3.1905C1.82138 7.86713 3.26138 11.2793 4.97926 13.527C5.70659 14.4882 6.57384 15.335 7.55213 16.0391C7.94138 16.3136 8.28563 16.5116 8.55676 16.6387C8.69176 16.7029 8.80201 16.7456 8.88638 16.7715C8.92328 16.7844 8.96133 16.7939 9.00001 16.7996C9.03823 16.7934 9.07586 16.784 9.11251 16.7715C9.19801 16.7456 9.30826 16.7029 9.44326 16.6387C9.71326 16.5116 10.0586 16.3125 10.4479 16.0391C11.4262 15.335 12.2934 14.4882 13.0208 13.527C14.7386 11.2804 16.1786 7.86713 15.5554 3.1905C15.5413 3.0901 15.4992 2.99571 15.4339 2.91811C15.3687 2.84052 15.2829 2.78287 15.1864 2.75175C14.454 2.51213 13.2176 2.12175 11.9948 1.78987C10.746 1.45125 9.59738 1.20038 9.00001 1.20038C8.40376 1.20038 7.25401 1.45013 6.00526 1.78875ZM5.70601 0.63C6.92663 0.298125 8.22376 0 9.00001 0C9.77626 0 11.0734 0.298125 12.294 0.63C13.5428 0.9675 14.8016 1.36687 15.5419 1.60875C15.8514 1.71096 16.1258 1.8984 16.3335 2.14954C16.5413 2.40068 16.674 2.70533 16.7164 3.0285C17.3869 8.06513 15.831 11.7979 13.9433 14.2673C13.1428 15.3236 12.1882 16.2538 11.1116 17.0269C10.7394 17.2944 10.3449 17.5296 9.93263 17.73C9.61763 17.8785 9.27901 18 9.00001 18C8.72101 18 8.38351 17.8785 8.06738 17.73C7.65508 17.5296 7.26065 17.2944 6.88838 17.0269C5.81179 16.2538 4.85729 15.3236 4.05676 14.2673C2.16901 11.7979 0.613131 8.06513 1.28363 3.0285C1.32603 2.70533 1.45873 2.40068 1.66649 2.14954C1.87425 1.8984 2.14863 1.71096 2.45813 1.60875C3.53272 1.25641 4.61566 0.930065 5.70601 0.63Z" fill="black" fill-opacity="0.3"/>
<path d="M12.2107 5.78925C12.2631 5.8415 12.3047 5.90357 12.333 5.97191C12.3614 6.04025 12.376 6.11351 12.376 6.1875C12.376 6.26149 12.3614 6.33475 12.333 6.40309C12.3047 6.47142 12.2631 6.5335 12.2107 6.58575L8.83573 9.96075C8.78348 10.0131 8.7214 10.0547 8.65307 10.083C8.58473 10.1114 8.51147 10.126 8.43748 10.126C8.36349 10.126 8.29023 10.1114 8.22189 10.083C8.15355 10.0547 8.09148 10.0131 8.03923 9.96075L6.35173 8.27325C6.29943 8.22095 6.25794 8.15886 6.22964 8.09053C6.20134 8.0222 6.18677 7.94896 6.18677 7.875C6.18677 7.80104 6.20134 7.7278 6.22964 7.65947C6.25794 7.59113 6.29943 7.52905 6.35173 7.47675C6.40403 7.42445 6.46611 7.38296 6.53445 7.35466C6.60278 7.32636 6.67602 7.31179 6.74998 7.31179C6.82394 7.31179 6.89718 7.32636 6.96551 7.35466C7.03384 7.38296 7.09593 7.42445 7.14823 7.47675L8.43748 8.76712L11.4142 5.78925C11.4665 5.73686 11.5286 5.6953 11.5969 5.66695C11.6652 5.63859 11.7385 5.62399 11.8125 5.62399C11.8865 5.62399 11.9597 5.63859 12.0281 5.66695C12.0964 5.6953 12.1585 5.73686 12.2107 5.78925Z" fill="black" fill-opacity="0.3"/>
</svg>
