<svg width="72" height="72" viewBox="0 0 72 72" fill="none" xmlns="http://www.w3.org/2000/svg">
<rect width="72" height="72" rx="12" fill="#F1FFF9"/>
<path d="M45 36C45 37.1819 44.7672 38.3522 44.3149 39.4442C43.8626 40.5361 43.1997 41.5282 42.364 42.364C41.5282 43.1997 40.5361 43.8626 39.4442 44.3149C38.3522 44.7672 37.1819 45 36 45C34.8181 45 33.6478 44.7672 32.5558 44.3149C31.4639 43.8626 30.4718 43.1997 29.636 42.364C28.8003 41.5282 28.1374 40.5361 27.6851 39.4442C27.2328 38.3522 27 37.1819 27 36C27 33.6131 27.9482 31.3239 29.636 29.636C31.3239 27.9482 33.6131 27 36 27C38.3869 27 40.6761 27.9482 42.364 29.636C44.0518 31.3239 45 33.6131 45 36Z" stroke="#2ACE89" stroke-width="2" stroke-linecap="round" stroke-linejoin="round"/>
<path d="M33 34C33 33.7348 33.1054 33.4804 33.2929 33.2929C33.4804 33.1054 33.7348 33 34 33H38C38.2652 33 38.5196 33.1054 38.7071 33.2929C38.8946 33.4804 39 33.7348 39 34V38C39 38.2652 38.8946 38.5196 38.7071 38.7071C38.5196 38.8946 38.2652 39 38 39H34C33.7348 39 33.4804 38.8946 33.2929 38.7071C33.1054 38.5196 33 38.2652 33 38V34Z" stroke="#2ACE89" stroke-width="2" stroke-linecap="round" stroke-linejoin="round"/>
</svg>
